<?xml version="1.0" encoding="UTF-8"?>
<svg width="512" height="512" viewBox="0 0 512 512" fill="none" xmlns="http://www.w3.org/2000/svg">
  <rect width="512" height="512" rx="128" fill="#3B82F6"/>
  <path d="M256 128C185.3 128 128 185.3 128 256C128 326.7 185.3 384 256 384C326.7 384 384 326.7 384 256C384 185.3 326.7 128 256 128ZM256 352C202.1 352 160 309.9 160 256C160 202.1 202.1 160 256 160C309.9 160 352 202.1 352 256C352 309.9 309.9 352 256 352Z" fill="white"/>
  <path d="M256 160C242.7 160 232 170.7 232 184V256C232 269.3 242.7 280 256 280C269.3 280 280 269.3 280 256V184C280 170.7 269.3 160 256 160Z" fill="white"/>
  <path d="M256 224C247.2 224 240 231.2 240 240C240 248.8 247.2 256 256 256C264.8 256 272 248.8 272 240C272 231.2 264.8 224 256 224Z" fill="white"/>
</svg>
